<svg viewBox="0 0 582 597" fill="none" xmlns="http://www.w3.org/2000/svg">
<g id="Group">
<path id="Vector" d="M413.06 503.367C364.247 524.748 316.109 538.125 268.312 535.052C220.556 531.888 173.313 512.13 134.434 480.536C95.555 448.941 65.0396 405.511 59.1661 359.684C53.2927 313.857 72.1015 265.542 94.2557 220.553C116.45 175.472 141.847 133.544 180.034 102.037C218.221 70.5304 269.146 49.3122 314.176 57.9416C359.246 66.4796 398.368 104.733 435.688 141.869C473.14 178.952 508.79 214.917 529.35 261.622C549.869 308.418 555.258 366.045 533.289 409.369C511.28 452.783 461.833 482.077 413.06 503.367Z" fill="#F9F9F9"/>
</g>
</svg>
