<svg width="507" height="507" viewBox="0 0 507 507" fill="none" xmlns="http://www.w3.org/2000/svg">
<g clip-path="url(#clip0)">
<g clip-path="url(#clip1)">
<path opacity="0.1" d="M35.9226 95.1907C25.6044 112.776 32.564 134.726 34.2554 154.979C35.2822 167.356 34.2056 179.819 31.0712 191.837C26.6222 208.898 5.46616 227.992 3.28525 245.451C1.10433 262.91 20.472 280.393 37.2069 286.465C41.3603 287.974 45.853 288.483 49.8949 290.267C60.8576 295.117 65.7186 308.095 66.0918 319.938C66.465 331.781 63.5184 343.562 64.0515 355.4C64.352 362.063 65.9367 369.023 70.5167 373.926C74.7282 378.431 80.8542 380.589 86.7523 382.51C105.402 388.587 124.875 393.96 144.425 392.083C163.976 390.206 183.793 379.624 191.305 361.724C194.024 355.245 190.678 342.703 193.411 336.243C196.145 329.783 201.321 323.58 208.358 322.566C212.468 321.975 216.597 323.226 220.561 324.458L281.745 347.601C290.469 350.322 300.259 352.98 308.449 348.95C312.661 346.874 315.855 343.271 318.927 339.735C343.208 311.97 368.507 281.858 372.951 245.451C374.516 232.623 373.368 219.573 375.107 206.769C376.847 193.966 382.174 180.702 393.228 173.791C401.753 168.456 412.304 167.656 422.346 166.579C438.601 164.833 454.958 161.875 469.701 154.906C484.444 147.937 497.563 136.564 503.839 121.675C505.696 117.272 506.941 112.398 505.894 107.747C504.024 99.4488 495.683 94.3663 487.865 90.7726C464.486 80.1031 439.129 74.3901 413.874 69.3609C402.291 67.0524 390.611 64.8652 378.776 64.9961C368.545 65.1028 358.421 66.936 348.345 68.6771C262.059 83.5222 168.822 92.8968 82.2209 74.7975C64.0612 71.0001 45.8142 78.3281 35.9226 95.1907Z" fill="#6C63FF"/>
<path d="M390.369 212.181L389.981 212.215L390.102 211.915L389.618 212.114L390.102 210.838C390.102 210.838 388.527 211.473 385.609 212.511C313.974 215.853 164.077 155.032 164.077 155.032L81.1059 166.434C80.6237 165.983 80.1674 165.505 79.7392 165.003L80.1075 166.502C79.9783 166.359 79.8555 166.219 79.7392 166.08L79.8701 166.603H79.7392L79.9428 166.885L89.437 205.421C89.437 205.421 258.637 298.711 360.466 286.853L389.453 213.544L390.369 212.181Z" fill="url(#paint0_linear)"/>
<path d="M166.69 157.491C166.69 157.491 317.71 218.753 384.66 212.521L340.028 278.997L178.641 228.622L99.7406 192.787L136.574 167.86L166.69 157.491Z" fill="#6C63FF"/>
<path opacity="0.1" d="M166.69 157.491C166.69 157.491 317.71 218.753 384.66 212.521L340.028 278.997L178.641 228.622L99.7406 192.787L136.574 167.86L166.69 157.491Z" fill="black"/>
<path opacity="0.1" d="M160.719 175.91L200.94 184.999L118.942 199.538L99.7406 182.399L160.719 175.91Z" fill="white"/>
<path opacity="0.1" d="M178.622 213.04L226.112 195.644L259.587 206.808L200.94 228.622L178.622 213.04Z" fill="white"/>
<path opacity="0.1" d="M244.015 232.774L296.173 218.496L342.621 231.217L293.318 247.837L244.015 232.774Z" fill="white"/>
<path d="M85.4677 168.64L166.69 157.476V177.21L98.7034 187.074L85.4677 168.64Z" fill="#6C63FF"/>
<path opacity="0.1" d="M85.9863 169.678L166.69 157.476V177.21L98.7034 187.074L85.9863 169.678Z" fill="white"/>
<g opacity="0.57">
<path opacity="0.95" d="M81.6596 65.208C81.6596 65.208 185.975 31.9726 226.971 56.3814C255.168 73.1664 318.705 68.3409 355.64 63.6852C376.07 61.1072 396.82 63.363 416.221 70.2711C434.914 76.9347 454.566 84.9805 453.742 89.0979C452.186 96.8866 81.6596 92.2114 81.6596 92.2114V65.208Z" fill="#414E35"/>
<path d="M31.5871 104.179C31.5917 96.2304 34.2723 88.5153 39.1964 82.2786C44.1205 76.0418 51.0009 71.6471 58.7273 69.8037C92.5217 61.69 149.196 51.8596 176.918 68.3488C217.919 92.7576 333.648 71.4623 333.648 71.4623C333.648 71.4623 405.264 93.2862 403.709 101.046C402.153 108.805 31.6016 104.159 31.6016 104.159L31.5871 104.179Z" fill="#606751"/>
</g>
<path d="M318.39 76.0633C319.282 75.2339 320.12 74.2543 320.377 73.0613C320.634 71.8682 320.125 70.4375 318.986 70.0011C317.712 69.5161 316.345 70.3987 315.313 71.2911C314.28 72.1834 313.093 73.2068 311.741 73.0176C312.437 72.3857 312.958 71.584 313.253 70.6908C313.548 69.7975 313.606 68.8431 313.423 67.9205C313.358 67.5385 313.19 67.1813 312.938 66.8875C312.23 66.131 310.946 66.4559 310.098 67.0524C307.398 68.9535 306.647 72.6199 306.633 75.9226C306.361 74.7296 306.589 73.4977 306.584 72.2707C306.579 71.0438 306.245 69.6955 305.213 69.0408C304.571 68.6979 303.851 68.5306 303.124 68.5558C301.912 68.5122 300.56 68.6334 299.731 69.5258C298.704 70.6267 298.97 72.4793 299.862 73.6966C300.754 74.9139 302.121 75.6704 303.376 76.5094C304.382 77.109 305.24 77.9279 305.886 78.9052C305.962 79.0411 306.023 79.184 306.07 79.332H313.675C315.387 78.4613 316.974 77.3617 318.39 76.0633V76.0633Z" fill="#425E10"/>
<path d="M151.284 59.4432C152.176 58.6138 153.014 57.6342 153.271 56.4411C153.528 55.2481 153.019 53.8174 151.88 53.381C150.605 52.896 149.239 53.7786 148.206 54.671C147.174 55.5633 145.987 56.5866 144.635 56.3975C145.334 55.7637 145.857 54.9588 146.152 54.0618C146.447 53.1648 146.503 52.2066 146.316 51.281C146.252 50.899 146.084 50.5418 145.832 50.248C145.124 49.4914 143.84 49.8164 142.992 50.4129C140.292 52.314 139.541 55.9804 139.526 59.2831C139.255 58.0901 139.483 56.8582 139.478 55.6312C139.473 54.4042 139.139 53.056 138.106 52.4013C137.465 52.0584 136.744 51.8911 136.018 51.9163C134.806 51.8727 133.454 51.9939 132.625 52.8863C131.598 53.9872 131.864 55.8398 132.756 57.0571C133.648 58.2744 135.014 59.0309 136.27 59.8699C137.276 60.4695 138.134 61.2884 138.78 62.2657C138.855 62.4016 138.917 62.5445 138.964 62.6925H146.568C148.28 61.8278 149.866 60.7347 151.284 59.4432V59.4432Z" fill="#4B641E"/>
<path d="M399.35 95.278C400.242 94.4487 401.081 93.4691 401.337 92.276C401.594 91.083 401.085 89.6523 399.947 89.2158C398.672 88.7309 397.305 89.6135 396.273 90.5059C395.241 91.3982 394.053 92.4215 392.701 92.2324C393.397 91.6004 393.918 90.7988 394.213 89.9056C394.508 89.0123 394.566 88.0579 394.383 87.1353C394.318 86.7532 394.151 86.3961 393.898 86.1023C393.191 85.3457 391.906 85.6707 391.058 86.2672C388.359 88.1683 387.607 91.8347 387.593 95.1374C387.322 93.9443 387.549 92.7125 387.544 91.4855C387.54 90.2585 387.205 88.9103 386.173 88.2556C385.531 87.9127 384.811 87.7454 384.084 87.7706C382.872 87.727 381.52 87.8482 380.692 88.7406C379.664 89.8415 379.931 91.6941 380.822 92.9113C381.714 94.1286 383.081 94.8852 384.336 95.7242C385.342 96.3238 386.2 97.1427 386.847 98.12C386.922 98.2559 386.983 98.3988 387.031 98.5468H394.635C396.347 97.6761 397.934 96.5764 399.35 95.278Z" fill="#425D10"/>
<path d="M285.472 251.091C280.625 246.304 276.792 240.62 274.766 234.141C273.21 229.151 271.819 224.277 271.819 222.701C271.819 219.941 267.986 209.558 263.251 204.553C263.086 204.378 262.916 204.208 262.766 204.068C261.942 200.809 260.299 192.588 263.149 187.487C263.846 186.241 264.428 184.934 264.889 183.582C266.597 178.35 269.223 173.465 272.643 169.154C273.329 168.325 273.936 167.434 274.456 166.492C275.643 166.696 276.341 166.366 276.196 165.197C276.196 165.153 276.196 165.11 276.196 165.066C276.743 164.94 277.029 164.542 276.932 163.761C276.21 158.01 279.103 140.032 279.103 140.032C281.851 131.921 283.064 123.368 282.68 114.813C281.958 101.151 267.482 98.2752 267.482 98.2752L266.285 99.4634C265.315 98.8669 264.23 98.1976 263.13 97.4895C263.349 97.3943 263.548 97.2566 263.714 97.0843C263.881 96.9121 264.011 96.7086 264.099 96.4856C265.354 93.8813 265.417 90.3119 265.596 87.4893C265.702 86.5783 265.659 85.6563 265.47 84.7589C265.239 83.9921 264.864 83.2763 264.365 82.6493C263.246 81.1741 261.816 79.9632 260.177 79.1025C258.538 78.2418 256.73 77.7522 254.881 77.6686C253.679 77.6201 252.458 77.7462 251.28 77.7462C249.07 77.7462 246.86 77.3194 244.66 77.5037C242.459 77.688 240.133 78.6579 239.159 80.6318C238.548 81.8685 238.543 83.3573 237.821 84.5116C236.988 85.8647 235.364 86.5533 234.429 87.8385C233.918 88.5438 233.641 89.3922 233.639 90.2634C233.625 90.5465 233.684 90.8284 233.808 91.083C234.03 91.3902 234.304 91.6561 234.618 91.8687C235.153 92.355 235.505 93.0094 235.618 93.7236C235.731 94.4379 235.597 95.1693 235.238 95.797C235.985 95.9367 236.674 96.2929 237.221 96.8215C237.767 97.35 238.146 98.0275 238.311 98.7699C238.326 99.0191 238.418 99.2577 238.572 99.4537C238.711 99.567 238.879 99.6378 239.057 99.6574C240.467 99.8999 241.892 99.2354 242.959 98.28C243.046 98.4401 243.128 98.5953 243.225 98.765C244.497 100.853 246.476 102.413 248.802 103.161C251.128 103.909 253.645 103.794 255.894 102.839C256.094 103.091 256.291 103.351 256.485 103.62C257.289 104.734 257.95 105.944 258.453 107.223L257.338 108.329C256.358 109.866 255.476 111.463 254.697 113.111C252.89 116.56 251.566 120.242 250.761 124.052C248.135 126.651 244.073 131.326 243.589 135.652C243.589 135.652 224.77 145.003 219.705 139.969C214.641 134.935 208.127 143.562 209.571 145.003C211.015 146.443 215.363 149.319 220.427 146.458H240.7C243.784 146.046 246.752 145.011 249.424 143.417C249.065 144.387 248.619 145.391 248.125 146.414C247.364 147.869 246.545 149.324 245.779 150.628C245.358 150.973 244.941 151.307 244.524 151.627C241.931 152.699 238.669 154.052 235.282 155.507C233.414 155.905 231.642 156.667 230.067 157.748C222.245 161.143 215.164 164.45 215.372 165.139C214.849 165.483 214.578 165.74 214.65 165.876C214.723 166.012 214.786 166.177 214.888 166.429C214.33 168.48 214.224 172.675 215.372 180.978C218.28 201.832 211.752 205.426 211.752 205.426C211.752 205.426 206.688 211.895 200.896 211.178C195.105 210.46 200.174 216.212 205.258 215.494C208.675 215.009 216.051 214.524 220.481 214.257C220.881 214.233 221.27 214.12 221.622 213.927C221.973 213.734 222.278 213.466 222.514 213.142C222.749 212.817 222.911 212.445 222.986 212.051C223.061 211.657 223.048 211.251 222.947 210.862C222.11 207.683 222 204.356 222.628 201.129C223.718 195.717 226.447 185.416 227.421 179.727V179.664C228.875 178.209 231.584 176.206 234.923 176.681C236.663 176.929 239.77 175.304 243.104 173.073C241.359 183.01 240.026 193.685 241.437 197.535C244.345 205.445 247.228 209.039 247.228 209.039C247.228 209.039 248.619 209.102 250.572 209.078L251.508 210.533L264.593 230.63C264.593 230.63 276.171 247.168 265.315 249.326C265.315 249.326 256.63 251.484 260.251 254.36C260.251 254.36 285.583 255.078 286.305 252.905C286.48 252.347 286.111 251.722 285.472 251.091Z" fill="url(#paint1_linear)"/>
<path d="M269.585 102.591C269.585 102.591 259.737 122.301 259.034 112.446C258.83 109.515 257.811 106.7 256.092 104.318C254.293 101.817 251.926 99.779 249.186 98.3721C249.186 98.3721 254.813 87.8142 254.11 90.6125C253.752 92.0675 257.798 95.1471 261.865 97.829C265.718 100.404 269.585 102.591 269.585 102.591Z" fill="#FFB9B9"/>
<path d="M223.161 199.732C222.55 202.892 222.656 206.149 223.471 209.262C223.573 209.642 223.589 210.04 223.519 210.427C223.449 210.814 223.293 211.18 223.064 211.5C222.835 211.819 222.538 212.084 222.194 212.275C221.851 212.466 221.469 212.578 221.077 212.603C216.768 212.86 209.6 213.336 206.28 213.811C201.356 214.514 196.432 208.884 202.059 209.587C207.686 210.29 212.61 203.956 212.61 203.956C212.61 203.956 218.939 200.435 216.128 180.023C215.009 171.899 215.116 167.787 215.644 165.784C215.747 165.275 215.971 164.799 216.298 164.397C216.298 164.397 216.298 164.397 216.298 164.397C216.445 164.228 216.642 164.109 216.86 164.057C217.107 164.033 217.357 164.064 217.591 164.148C217.825 164.232 218.037 164.367 218.212 164.542C218.212 164.542 227.358 172.991 228.06 175.1C228.235 175.619 228.109 176.967 227.794 178.791C226.873 184.354 224.222 194.431 223.161 199.732Z" fill="#FFB9B9"/>
<path opacity="0.05" d="M223.161 199.732C222.55 202.892 222.656 206.149 223.471 209.262C223.573 209.642 223.589 210.04 223.519 210.427C223.449 210.814 223.293 211.18 223.064 211.5C222.835 211.819 222.538 212.084 222.194 212.275C221.851 212.466 221.469 212.578 221.077 212.603C216.768 212.86 209.6 213.336 206.28 213.811C201.356 214.514 196.432 208.884 202.059 209.587C207.686 210.29 212.61 203.956 212.61 203.956C212.61 203.956 218.939 200.435 216.128 180.023C215.009 171.899 215.116 167.787 215.644 165.784C215.747 165.275 215.971 164.799 216.298 164.397C216.298 164.397 216.298 164.397 216.298 164.397C216.445 164.228 216.642 164.109 216.86 164.057C217.107 164.033 217.357 164.064 217.591 164.148C217.825 164.232 218.037 164.367 218.212 164.542C218.212 164.542 227.358 172.991 228.06 175.1C228.235 175.619 228.109 176.967 227.794 178.791C226.873 184.354 224.222 194.431 223.161 199.732Z" fill="black"/>
<path d="M285.065 250.417C284.362 252.527 259.742 251.823 259.742 251.823C256.223 249.006 264.666 246.896 264.666 246.896C275.217 244.786 263.963 228.593 263.963 228.593L251.217 208.898L248.469 204.64C248.469 204.64 251.988 199.713 258.317 200.416C259.771 200.576 261.259 201.575 262.65 203.064C267.249 207.962 270.981 218.127 270.981 220.829C270.981 222.371 272.333 227.133 273.845 232.027C275.813 238.37 279.559 243.928 284.25 248.618C284.885 249.272 285.239 249.888 285.065 250.417Z" fill="#FFB9B9"/>
<path opacity="0.1" d="M227.818 178.786C227.136 179.364 226.518 180.014 225.976 180.726C220.791 180.076 216.802 168.674 215.658 165.784C215.561 165.536 215.484 165.352 215.426 165.241C215.368 165.129 215.673 164.799 216.313 164.397L216.875 164.057C217.122 164.033 217.371 164.064 217.605 164.148C217.839 164.232 218.051 164.367 218.227 164.542C218.227 164.542 227.372 172.991 228.075 175.1C228.259 175.619 228.133 176.962 227.818 178.786Z" fill="black"/>
<path d="M249.889 149.052C249.889 149.052 215.421 163.116 216.124 164.537C216.826 165.958 221.048 179.32 226.674 180.023C226.674 180.023 230.193 175.095 235.117 175.799C240.041 176.502 256.218 161.734 256.218 161.734L267.472 153.286L249.889 149.052Z" fill="#4C4C78"/>
<path opacity="0.85" d="M249.889 149.052C249.889 149.052 215.421 163.116 216.124 164.537C216.826 165.958 221.048 179.32 226.674 180.023C226.674 180.023 230.193 175.095 235.117 175.799C240.041 176.502 256.218 161.734 256.218 161.734L267.472 153.286L249.889 149.052Z" fill="#292F8E"/>
<path opacity="0.1" d="M263.256 205.363C263.256 208.297 255.792 208.855 251.231 208.918L248.483 204.659C248.483 204.659 252.002 199.732 258.332 200.435C259.785 200.595 261.273 201.594 262.664 203.083C262.984 204.485 263.256 205.363 263.256 205.363Z" fill="black"/>
<path d="M247.078 152.573C247.078 152.573 238.635 188.461 241.451 196.221C244.267 203.981 247.078 207.482 247.078 207.482C247.078 207.482 262.553 208.185 262.553 203.961C262.553 203.961 259.034 192.7 262.553 186.361C263.23 185.141 263.797 183.862 264.244 182.54C265.895 177.423 268.44 172.64 271.761 168.412C273.472 166.298 274.78 163.907 274.509 161.725C273.806 156.089 247.078 152.573 247.078 152.573Z" fill="#292F8E"/>
<path d="M252.705 122.301C252.705 122.301 244.262 129.362 243.559 135.667C243.559 135.667 225.269 144.818 220.345 139.891C215.421 134.964 209.091 143.426 210.507 144.828C211.922 146.23 216.133 149.052 221.057 146.234H240.749C240.749 146.234 254.115 144.828 254.803 134.27C255.491 123.712 252.705 122.301 252.705 122.301Z" fill="#FFB9B9"/>
<path opacity="0.05" d="M252.705 122.301C252.705 122.301 244.262 129.362 243.559 135.667C243.559 135.667 225.269 144.818 220.345 139.891C215.421 134.964 209.091 143.426 210.507 144.828C211.922 146.23 216.133 149.052 221.057 146.234H240.749C240.749 146.234 254.115 144.828 254.803 134.27C255.491 123.712 252.705 122.301 252.705 122.301Z" fill="black"/>
<path opacity="0.1" d="M260.091 97.3149C259.965 97.7708 260.28 96.893 260.091 97.3149C259.063 99.6428 258.453 103.348 256.097 104.318C254.298 101.817 251.931 99.779 249.191 98.3722C249.191 98.3722 254.818 87.8142 254.115 90.6125C253.752 92.0626 256.063 94.633 260.091 97.3149Z" fill="black"/>
<path d="M261.496 94.4972C261.496 96.4463 260.919 98.3516 259.837 99.9722C258.754 101.593 257.216 102.856 255.417 103.602C253.617 104.348 251.637 104.543 249.727 104.163C247.817 103.782 246.062 102.844 244.685 101.466C243.307 100.087 242.369 98.3314 241.989 96.4198C241.609 94.5081 241.804 92.5267 242.55 90.726C243.295 88.9253 244.557 87.3862 246.177 86.3033C247.796 85.2205 249.7 84.6425 251.648 84.6425C252.944 84.6341 254.228 84.8833 255.427 85.3756C256.625 85.8679 257.714 86.5934 258.631 87.5102C259.547 88.427 260.272 89.5167 260.764 90.7161C261.256 91.9155 261.505 93.2007 261.496 94.4972Z" fill="#FFB9B9"/>
<path opacity="0.1" d="M256.223 110.337L266.071 100.482C266.071 100.482 280.126 103.3 280.843 116.67C281.197 125.029 280.004 133.382 277.325 141.307C277.325 141.307 274.509 158.907 275.217 164.537C275.924 170.168 256.926 156.089 256.926 156.089C256.926 156.089 241.451 158.907 242.154 156.792C242.857 154.678 251.299 142.728 249.908 138.489C249.303 136.671 249.477 132.641 249.874 128.635C250.534 122.119 252.714 115.85 256.238 110.332L256.223 110.337Z" fill="black"/>
<path d="M278.028 139.901C278.028 139.901 275.217 157.491 275.934 163.131C276.651 168.771 257.643 154.683 257.643 154.683C257.643 154.683 255.22 155.124 252.312 155.527C247.916 156.138 242.445 156.661 242.866 155.386C242.978 155.087 243.113 154.797 243.269 154.518C245.105 151.045 251.881 140.895 250.606 137.059C250 135.245 250.175 131.21 250.572 127.204C251.235 120.688 253.416 114.419 256.941 108.901L266.789 99.0463C266.789 99.0463 280.843 101.864 281.561 115.235C281.913 123.604 280.715 131.967 278.028 139.901Z" fill="#D14A28"/>
<path opacity="0.1" d="M261.496 94.4972C261.499 95.8613 261.217 97.2109 260.668 98.4594C259.829 97.7692 259.104 96.9509 258.521 96.0346C257.68 94.7339 256.764 93.4838 255.777 92.2906C255.565 91.9881 255.269 91.7553 254.924 91.6213C254.275 91.437 253.616 92.0287 253.432 92.6834C253.319 93.3528 253.319 94.0363 253.432 94.7057C253.487 95.042 253.468 95.3862 253.377 95.7145C253.286 96.0428 253.124 96.3473 252.903 96.6068C252.065 97.3877 250.708 96.8445 249.753 96.2043C248.798 95.5641 247.601 94.8512 246.589 95.3896C246.212 95.6272 245.893 95.9472 245.658 96.3256C244.932 97.473 244.11 98.5567 243.201 99.5652C242.419 98.263 241.949 96.7976 241.827 95.2835C241.705 93.7694 241.935 92.2476 242.498 90.837C243.061 89.4263 243.942 88.1649 245.072 87.1514C246.203 86.1378 247.552 85.3996 249.015 84.9942C250.478 84.5889 252.015 84.5274 253.506 84.8147C254.996 85.1019 256.4 85.7301 257.608 86.6501C258.816 87.5701 259.795 88.7571 260.469 90.1183C261.142 91.4796 261.492 92.9782 261.491 94.4972H261.496Z" fill="black"/>
<path d="M264.937 88.5175C265.04 87.626 264.999 86.7237 264.816 85.8452C264.592 85.097 264.228 84.3978 263.745 83.7841C262.663 82.3434 261.277 81.1592 259.685 80.3159C258.094 79.4726 256.336 78.9909 254.537 78.9052C253.369 78.8616 252.206 78.9828 251.038 78.9828C248.891 78.9828 246.744 78.5657 244.601 78.7452C242.459 78.9246 240.201 79.8752 239.27 81.8054C238.679 83.0178 238.674 84.4728 237.971 85.6222C237.162 86.9461 235.582 87.6203 234.676 88.8812C234.18 89.5725 233.912 90.4017 233.91 91.2527C233.898 91.529 233.954 91.8041 234.075 92.0529C234.29 92.3521 234.556 92.6114 234.86 92.8192C235.38 93.2975 235.723 93.9384 235.832 94.637C235.942 95.3356 235.811 96.0506 235.461 96.6651C236.19 96.8016 236.862 97.1506 237.393 97.6684C237.925 98.1861 238.291 98.8494 238.446 99.5749C238.461 99.8184 238.549 100.052 238.698 100.244C238.837 100.357 239.005 100.427 239.183 100.443C240.593 100.69 242.028 99.992 243.06 99.0124C244.093 98.0327 244.849 96.7815 245.677 95.6175C245.909 95.2381 246.226 94.9177 246.603 94.6815C247.616 94.1432 248.808 94.8658 249.763 95.5011C250.718 96.1364 252.08 96.6796 252.918 95.894C253.139 95.6355 253.301 95.3319 253.392 95.0043C253.483 94.6768 253.502 94.3332 253.446 93.9977C253.332 93.3284 253.332 92.6446 253.446 91.9753C253.63 91.3206 254.285 90.729 254.939 90.9132C255.281 91.0484 255.575 91.2832 255.782 91.5874C256.771 92.78 257.689 94.0302 258.53 95.3314C259.441 96.7427 262.165 100.084 263.493 97.3149C264.705 94.7737 264.787 91.277 264.937 88.5175Z" fill="#130903"/>
<path opacity="0.1" d="M250.248 136.734C250.248 136.734 260.798 136.031 263.614 138.14C266.43 140.25 277.669 139.547 277.669 139.547" fill="black"/>
<path opacity="0.05" d="M273.806 132.864C273.806 132.864 270.288 139.901 270.288 142.015C270.288 144.13 267.472 146.943 267.472 146.943C267.472 146.943 259.524 151.307 252.298 155.531C247.902 156.142 242.43 156.666 242.852 155.391C242.964 155.092 243.098 154.801 243.254 154.523C250.752 149.954 261.142 137.064 261.142 137.064C261.142 130.73 264.661 119.464 264.661 119.464C264.661 119.464 273.104 115.24 275.914 119.464C278.725 123.688 273.806 132.864 273.806 132.864Z" fill="black"/>
<path opacity="0.1" d="M85.4677 167.079L94.8068 204.989C94.8068 204.989 257.769 294.836 355.857 283.41L384.403 211.221C384.403 211.221 314.051 239.68 239.396 226.595C236.535 226.088 233.707 225.412 230.925 224.573C208.616 217.89 100.351 184.766 85.4677 167.079Z" fill="black"/>
<path d="M85.4677 168.117L94.8069 206.027C94.8069 206.027 257.764 295.869 355.852 284.448L384.398 212.259C384.398 212.259 314.046 240.717 239.392 227.633C236.53 227.125 233.702 226.45 230.92 225.61C208.616 218.927 100.351 185.804 85.4677 168.117Z" fill="#6C63FF"/>
<path d="M138.41 76.5816L134.257 285.238" stroke="#CCCCCC" stroke-width="2" stroke-miterlimit="10"/>
<path d="M137.175 73.5498L137.175 76.815L239.585 164.016L241.927 161.234L137.175 73.5498Z" fill="#717171"/>
<path d="M264.57 118.824C264.57 118.824 260.357 129.864 259.964 136.156C259.964 136.156 244.082 153.505 237.015 153.769C229.948 154.033 225.477 157.987 228.195 159.566C230.913 161.144 234.293 163.473 238.725 160.222C243.157 156.97 265.664 146.385 265.664 146.385C265.664 146.385 268.649 143.748 268.781 141.642C268.912 139.537 272.862 132.728 272.862 132.728C272.862 132.728 278.345 123.9 275.798 119.509C273.25 115.118 264.57 118.824 264.57 118.824Z" fill="#EDB4B4"/>
<path opacity="0.1" d="M271.698 106.816C271.698 106.816 259.034 105.409 261.147 123.707C261.147 123.707 269.59 118.78 276.622 123.707C276.622 123.712 279.433 110.337 271.698 106.816Z" fill="black"/>
<path d="M271.698 105.409C271.698 105.409 259.034 104.003 261.147 122.301C261.147 122.301 269.59 117.374 276.622 122.301C276.622 122.301 279.433 108.93 271.698 105.409Z" fill="#D14A28"/>
<path opacity="0.15" d="M122.792 275.616C122.792 275.616 107.225 284.962 117.083 305.738" stroke="#6C63FF" stroke-miterlimit="10"/>
<path opacity="0.15" d="M130.057 279.254C130.057 279.254 114.49 288.599 124.348 309.375" stroke="#6C63FF" stroke-miterlimit="10"/>
<path opacity="0.15" d="M144.89 275.616C144.89 275.616 160.457 284.962 150.599 305.738" stroke="#6C63FF" stroke-miterlimit="10"/>
<path opacity="0.15" d="M139.181 280.81C139.181 280.81 154.748 290.156 144.89 310.932" stroke="#6C63FF" stroke-miterlimit="10"/>
</g>
<path opacity="0.42" d="M160.386 422.4C174.036 422.42 177.675 403.195 177.675 403.195C176.583 405.837 175.181 405.852 167.897 406.777C160.613 407.702 155.142 414.036 155.142 414.036C138.96 386.794 116.556 409.009 116.556 409.009C118.679 413.988 122.374 418.135 127.076 420.816C125.895 422.649 124.521 425.256 125.342 426.459C126.286 427.835 130.123 424.858 132.227 423.035C132.727 423.188 133.227 423.335 133.731 423.465C134.346 425.614 135.814 431.235 135.237 434.303C135.237 434.303 140.921 434.916 142.114 424.569C145.775 424.651 149.431 424.264 152.994 423.419C152.994 423.419 149.448 439.246 153.933 440.945C158.418 442.644 161.915 449.141 161.915 449.141C171.308 436.983 160.386 422.4 160.386 422.4Z" fill="#3F415F"/>
<path opacity="0.6" d="M241.129 366.461C253.795 371.543 264.303 355.038 264.303 355.038C262.334 357.072 261.015 356.58 253.902 354.716C246.789 352.852 239.373 356.705 239.373 356.705C234.445 325.431 205.391 337.776 205.391 337.776C205.517 343.189 207.412 348.411 210.786 352.645C209.008 353.911 206.767 355.822 207.086 357.238C207.45 358.896 212.116 357.526 214.747 356.611C215.153 356.945 215.568 357.262 215.985 357.568C215.757 359.794 215.038 365.56 213.365 368.196C213.365 368.196 218.419 370.871 223.361 361.702C226.712 363.129 230.232 364.123 233.836 364.659C233.836 364.659 224.66 378.034 228.218 381.296C231.777 384.557 232.59 391.862 232.59 391.862C245.84 384.035 241.129 366.461 241.129 366.461Z" fill="#45497A"/>
</g>
<defs>
<linearGradient id="paint0_linear" x1="235.064" y1="287.891" x2="235.064" y2="155.032" gradientUnits="userSpaceOnUse">
<stop stop-color="#808080" stop-opacity="0.25"/>
<stop offset="0.54" stop-color="#808080" stop-opacity="0.12"/>
<stop offset="1" stop-color="#808080" stop-opacity="0.1"/>
</linearGradient>
<linearGradient id="paint1_linear" x1="50170.3" y1="100074" x2="50170.3" y2="35480.6" gradientUnits="userSpaceOnUse">
<stop stop-color="#808080" stop-opacity="0.25"/>
<stop offset="0.54" stop-color="#808080" stop-opacity="0.12"/>
<stop offset="1" stop-color="#808080" stop-opacity="0.1"/>
</linearGradient>
<clipPath id="clip0">
<rect width="507" height="507" fill="white"/>
</clipPath>
<clipPath id="clip1">
<path d="M0.0196533 4.98035H515.984V392.452H0.0196533V4.98035Z" fill="white"/>
</clipPath>
</defs>
</svg>
